<svg width="162" height="30" viewBox="0 0 162 30" fill="none" xmlns="http://www.w3.org/2000/svg">
<path d="M74.424 10.2062C74.424 15.1849 71.8068 18.0173 67.7432 18.9794C67.6961 18.9794 74.249 29.2798 74.249 29.2798H66.3101L56.7094 13.9604H63.4777C66.4043 13.9604 67.4942 12.3457 67.4942 10.3811C67.4942 8.46369 66.4447 6.8019 63.5248 6.8019H55.6128V29.2798H48.6292V0.605511H63.471C70.8447 0.605511 74.424 4.74989 74.424 10.2062ZM36.9294 29.2798H43.913V0.605511H36.9294V29.2798ZM14.6264 0.605511L0 29.2798H7.85818L10.2264 24.4761H22.0002L19.0736 18.4546H13.2001L17.5463 9.63435H17.6338L27.4094 29.2798H35.4425L20.8228 0.605511H14.6264ZM99.9227 14.3977C102.674 15.3598 104.551 17.8895 104.551 21.2534C104.551 26.0975 100.669 29.2865 94.7287 29.2865H77.7475V0.605511H94.0761C99.8823 0.605511 103.334 3.70707 103.334 8.32913C103.327 11.2087 102.15 13.1732 99.9227 14.3977ZM84.7311 11.7334H94.029C94.3633 11.7408 94.6955 11.6804 95.0057 11.5559C95.316 11.4313 95.5978 11.2453 95.8342 11.0089C96.0706 10.7725 96.2566 10.4907 96.3811 10.1805C96.5057 9.87022 96.5661 9.53798 96.5587 9.20376C96.5669 8.87274 96.5083 8.54347 96.3866 8.23553C96.2649 7.9276 96.0825 7.64728 95.8503 7.41127C95.618 7.17526 95.3407 6.98838 95.0347 6.86173C94.7288 6.73508 94.4005 6.67126 94.0694 6.67407H84.7311V11.7334ZM94.2443 23.2583C94.6394 23.2702 95.0327 23.2019 95.4007 23.0576C95.7686 22.9133 96.1035 22.6959 96.3852 22.4187C96.6668 22.1414 96.8894 21.81 97.0395 21.4444C97.1896 21.0787 97.2641 20.6865 97.2584 20.2913C97.2584 18.6295 95.9465 17.4118 94.2443 17.4118H84.7311V23.2583H94.2443ZM126.592 16.6246C126.592 20.9776 124.587 23.3929 120.611 23.3929C116.682 23.3929 114.677 20.9776 114.677 16.6246V0.605511H107.518V16.0998C107.518 24.9605 112.188 29.892 120.611 29.892C129.034 29.892 133.751 24.9605 133.751 16.0998V0.605511H126.592V16.6246ZM152.387 11.9958C145.76 10.3811 144.313 10.2264 144.313 8.32913C144.313 6.86245 145.968 6.14929 148.767 6.14929C152.474 6.14929 156.43 7.07774 158.677 8.46369L160.904 2.61715C158.025 1.08992 153.786 0 148.855 0C141.474 0 137.33 3.6667 137.33 8.59825C137.33 13.9066 140.425 16.0595 147.543 17.5934C153.087 18.8179 154.264 19.5782 154.264 21.1323C154.264 22.821 152.737 23.5745 149.723 23.5745C145.724 23.6153 141.778 22.6555 138.245 20.7825L136.105 26.8914C139.557 28.7281 144.704 29.9055 149.897 29.9055C157.143 29.9055 161.463 26.5415 161.463 20.9103C161.469 16.3824 158.55 13.4827 152.387 11.9958Z" fill="white"/>
</svg>
