<svg width="178" height="31" viewBox="0 0 178 31" fill="none" xmlns="http://www.w3.org/2000/svg">
<g clip-path="url(#clip0_423_21426)">
<path d="M94.157 31.0002C93.4949 30.644 92.7696 30.3703 92.1807 29.9185C90.9763 28.9984 90.1811 27.8309 90.7068 26.2249C91.1493 24.8694 92.1608 24.1175 93.5781 24.1571C95.2117 24.2066 96.1965 25.1036 96.5392 26.7393C96.6191 27.1252 97.0948 27.7056 97.3876 27.7023C97.7569 27.7023 98.2726 27.2736 98.4689 26.8976C99.3673 25.186 99.9062 23.6591 98.5521 21.6474C95.7307 17.4591 93.3086 13.007 90.7268 8.6604C90.5105 8.29434 90.3275 7.90519 90.0148 7.30827C92.6765 7.30827 95.1418 7.2621 97.6039 7.35444C97.9998 7.36763 98.4756 7.92827 98.7351 8.3471C100.172 10.682 101.553 13.0532 103.157 15.7475C104.135 13.4423 105.103 11.4504 105.822 9.37274C106.394 7.7238 107.272 7.09721 109.069 7.2654C111.099 7.45668 113.165 7.34455 115.211 7.27859C116.126 7.24891 116.578 7.49955 116.878 8.41636C117.64 10.7578 118.538 13.0565 119.39 15.3716C119.569 15.8564 119.782 16.328 120.155 17.2283C121.243 14.1019 122.241 11.4042 123.099 8.667C123.436 7.59519 123.928 7.24561 125.069 7.2654C128.453 7.32806 128.459 7.2687 129.617 10.4116C130.353 12.4134 131.071 14.4218 131.963 16.8886C132.465 15.5002 132.831 14.524 133.177 13.5413C133.65 12.1957 134.096 10.8436 134.568 9.50136C135.111 7.95575 136.269 7.25441 138.042 7.39732C136.248 12.5948 134.475 17.7691 132.642 22.9204C132.525 23.2436 131.923 23.5536 131.517 23.5899C127.634 23.9427 127.631 23.923 126.293 20.2854C125.615 18.4353 124.943 16.5852 124.254 14.7384C124.224 14.6625 124.078 14.6295 123.871 14.5108C122.943 17.1557 121.982 19.761 121.127 22.4026C120.82 23.3491 120.355 23.6459 119.36 23.6459C115.494 23.6459 115.487 23.6822 114.209 20.1667C112.862 16.4599 111.538 12.7432 110.194 9.03306C110.017 8.54497 109.804 8.07008 109.458 7.23242C108.291 9.97955 107.259 12.3705 106.251 14.7714C104.721 18.4122 103.15 22.0366 101.703 25.7071C100.705 28.2333 99.2708 30.2384 96.4926 30.9936H94.1637L94.157 31.0002Z" fill="white"/>
<path d="M23.2897 0V23.4907H14.5827V11.9647H8.92994V23.7414H0V0H8.98318V9.18457H14.6393V0H23.2897Z" fill="white"/>
<path d="M168.019 0V23.5072H161.365V0H168.019Z" fill="white"/>
<path d="M178 23.7447H171.346V0H178V23.7447Z" fill="white"/>
<path d="M60.8727 23.5305C60.8727 20.137 60.8793 16.8523 60.8727 13.5676C60.866 11.2624 60.2838 10.461 58.6368 10.4478C56.9833 10.4346 55.8787 11.6483 55.8554 13.66C55.8155 16.8985 55.8454 20.1337 55.8454 23.4975H48.7321V7.4006H55.7522C55.9386 7.76996 56.1581 8.20528 56.2014 8.29432C58.2975 7.81283 60.2771 7.06092 62.2867 6.96858C65.3343 6.83336 67.7498 9.12539 67.8729 12.1297C68.0259 15.8926 67.9095 19.6654 67.9095 23.5272H60.8727V23.5305Z" fill="white"/>
<path d="M36.0425 6.60912C38.9005 6.47061 41.3725 7.43688 43.422 9.37274C46.982 12.7366 47.0519 18.0923 43.6383 21.6078C39.659 25.7038 32.5357 25.7829 28.5565 21.7167C26.0312 19.1344 25.1961 16.0641 26.5137 12.6475C27.9077 9.03305 30.779 7.18954 34.5486 6.61901C35.0344 6.54646 35.5434 6.60912 36.0391 6.60912H36.0425ZM38.631 15.7376C38.631 14.2602 38.6709 12.7794 38.621 11.302C38.5711 9.81465 37.5363 8.8022 36.129 8.75603C34.7083 8.70986 33.5272 9.63656 33.4773 11.1239C33.3808 14.0788 33.3841 17.037 33.464 19.9919C33.5039 21.4957 34.6351 22.4587 36.0325 22.4587C37.4898 22.4587 38.5711 21.4001 38.621 19.8435C38.6642 18.4749 38.631 17.1062 38.631 15.7376Z" fill="white"/>
<path d="M157.292 20.1076C155.056 23.5044 150.798 25.3348 146.895 24.6257C142.473 23.8243 139.389 21.0739 138.627 16.9417C137.975 13.4096 139.436 10.5999 142.28 8.51231C148.169 4.18879 156.79 7.02167 158.46 13.8219C158.676 14.7057 158.65 15.6489 158.763 16.813C156.5 16.813 154.414 16.813 152.331 16.813C150.249 16.813 148.256 16.813 146.026 16.813C146.026 18.0596 145.957 19.1446 146.043 20.2165C146.17 21.7335 147.464 22.8053 149.021 22.6866C151.001 22.5316 152.9 21.9709 154.231 20.4605C155.199 19.359 156.064 19.2502 157.295 20.1109L157.292 20.1076ZM151.203 14.5375C150.954 12.5951 152.022 10.4613 149.933 9.21145C149.25 8.80252 147.88 8.81901 147.204 9.24114C145.138 10.524 146.269 12.6445 145.993 14.5375H151.203Z" fill="white"/>
<path d="M90.6037 16.8033H77.8842C77.8842 18.0862 77.7677 19.2306 77.9141 20.3386C78.1104 21.8392 79.5544 23.0297 81.0083 22.6274C82.8183 22.1261 84.6282 21.3709 86.2053 20.365C87.6293 19.4548 87.4895 19.2404 89.0799 20.1243C87.0836 23.8773 81.6804 25.7043 77.0823 24.1807C72.4543 22.6471 69.9224 18.7919 70.5313 14.2112C71.0736 10.1416 75.1027 6.77779 79.6708 6.57662C84.8877 6.34906 88.9435 8.88513 90.2078 13.2878C90.5138 14.3497 90.4673 15.5073 90.6037 16.8V16.8033ZM77.8409 14.4915H83.1377C82.978 12.5656 83.8563 10.4945 81.9 9.25779C81.2246 8.82906 79.8505 8.79938 79.1584 9.20172C77.0424 10.4351 78.0539 12.5754 77.8409 14.4915Z" fill="white"/>
</g>
<defs>
<clipPath id="clip0_423_21426">
<rect width="178" height="31" fill="white"/>
</clipPath>
</defs>
</svg>
