<svg width="262" height="30" viewBox="0 0 262 30" fill="none" xmlns="http://www.w3.org/2000/svg">
<g clip-path="url(#clip0_423_21370)">
<path d="M25.7004 29.1793C25.7004 27.525 25.6647 25.9419 25.7147 24.3588C25.7433 23.3747 26.2148 22.626 27.108 22.1054C31.1234 19.7379 35.1103 17.3348 39.1186 14.9459C39.4973 14.7177 39.826 14.4681 39.6688 13.969C39.5187 13.4912 39.1258 13.4199 38.6756 13.4199C34.503 13.4199 30.3303 13.4199 26.1577 13.4413C25.8362 13.4413 25.4789 13.5839 25.1931 13.7622C17.0407 18.8038 8.88832 23.8668 0.743075 28.9155C0.557306 29.0296 0.357248 29.1294 0.0643046 29.2863C0.0428697 28.9654 0.0214349 28.7515 0.0214349 28.5447C0.00714495 24.7225 0.0142899 20.9074 0 17.0923C0 16.7001 0.107174 16.4648 0.457277 16.2509C8.66683 11.1808 16.8692 6.09638 25.0788 1.02626C25.2931 0.897903 25.5789 0.826594 25.829 0.826594C30.6804 0.812332 35.5319 0.819463 40.3904 0.826594C41.3264 0.826594 41.6408 1.16175 41.6408 2.17435C41.6408 8.72771 41.6408 15.2811 41.6408 21.8344C41.6408 24.1021 41.6337 26.3697 41.6479 28.6374C41.6479 29.0866 41.5336 29.2435 41.0549 29.2364C36.1177 29.2221 31.1806 29.2293 26.2506 29.2221C26.0862 29.2221 25.929 29.2007 25.7004 29.1793Z" fill="white"/>
<path d="M143.313 15.3457C143.378 11.7017 144.028 8.65681 145.907 5.97556C147.979 3.00195 150.887 1.27625 154.388 0.541762C158.489 -0.321086 162.562 -0.228383 166.477 1.39748C171.336 3.41554 173.922 7.21635 174.651 12.3221C175.059 15.1888 174.887 18.0412 173.887 20.7937C172.422 24.8227 169.643 27.5895 165.563 28.9016C160.619 30.4918 155.667 30.4419 150.916 28.1957C146.6 26.1562 144.349 22.5337 143.578 17.9271C143.414 16.9359 143.378 15.9233 143.321 15.3457H143.313ZM158.968 23.6746L159.004 23.4607C159.418 23.4607 159.833 23.4964 160.24 23.4607C163.269 23.1541 165.577 21.7921 166.713 18.8612C167.563 16.6649 167.599 14.383 167.042 12.1153C166.37 9.36991 164.641 7.55864 161.898 6.80276C160.076 6.30359 158.225 6.29646 156.389 6.77423C153.909 7.41602 152.18 8.92065 151.344 11.3452C150.473 13.8624 150.516 16.4082 151.452 18.904C152.159 20.7866 153.459 22.1843 155.381 22.8474C156.532 23.2468 157.768 23.4108 158.968 23.6818V23.6746Z" fill="white"/>
<path d="M178.788 29.1934V0.819223C178.981 0.819223 179.181 0.819223 179.374 0.819223C183.997 0.819223 188.62 0.804961 193.25 0.840616C195.107 0.854878 196.951 1.09733 198.73 1.67494C202.024 2.74459 203.803 5.1192 204.524 8.38518C205.132 11.1163 205.253 13.8974 205.06 16.6785C204.939 18.4185 204.76 20.1727 204.403 21.8699C203.581 25.7848 201.073 28.0738 197.158 28.7584C195.579 29.0365 193.964 29.1791 192.364 29.2005C188.048 29.2575 183.732 29.2219 179.417 29.2219C179.217 29.2219 179.01 29.2005 178.781 29.1934H178.788ZM186.083 22.9894C188.405 22.9894 190.649 23.075 192.892 22.968C195.214 22.8539 196.622 21.6631 197.179 19.4453C197.944 16.4004 197.894 13.3198 197.286 10.2606C196.943 8.54207 195.9 7.4439 194.114 7.15153C193.628 7.07309 193.128 7.01604 192.642 7.00891C190.663 6.98751 188.677 6.98038 186.698 6.97325C186.498 6.97325 186.305 6.99465 186.09 7.01604V22.9894H186.083Z" fill="white"/>
<path d="M235.248 20.0872C235.441 20.0586 235.541 20.0373 235.641 20.0373C237.684 20.0373 239.728 20.0301 241.778 20.0444C241.957 20.0444 242.264 20.1941 242.293 20.3154C242.643 22.0553 243.857 22.8825 245.444 23.2533C247.866 23.8095 250.316 23.888 252.731 23.2034C253.324 23.0323 253.925 22.7114 254.403 22.312C255.368 21.5134 255.318 20.2227 254.36 19.4169C253.553 18.7394 252.567 18.5112 251.552 18.3971C248.93 18.1048 246.301 17.848 243.679 17.52C242.721 17.3988 241.771 17.1777 240.849 16.8854C237.82 15.9441 235.991 13.9688 235.712 10.7171C235.383 6.87348 236.691 3.34365 240.714 1.52525C241.664 1.09739 242.678 0.747973 243.7 0.548306C247.244 -0.157661 250.802 -0.286018 254.289 0.840676C258.119 2.08146 260.734 4.50599 261.498 8.61343C261.563 8.96998 261.577 9.33366 261.613 9.733C261.405 9.75439 261.262 9.77578 261.127 9.77578C259.083 9.77578 257.04 9.78291 254.989 9.76152C254.796 9.76152 254.475 9.60464 254.432 9.46202C254.003 7.94312 252.91 7.12306 251.495 6.7166C249.195 6.05342 246.88 6.11046 244.622 6.91626C244.079 7.1088 243.536 7.45822 243.129 7.86468C242.271 8.71327 242.393 10.0325 243.443 10.6101C244.293 11.0736 245.265 11.4159 246.222 11.5585C248.752 11.9365 251.302 12.1718 253.839 12.4642C255.682 12.6781 257.468 13.0988 258.998 14.197C261.598 16.0653 262.298 18.7537 261.984 21.7344C261.563 25.6992 258.969 27.8385 255.404 29.0223C252.517 29.985 249.523 30.042 246.522 29.8281C244.536 29.6855 242.593 29.336 240.756 28.5374C237.613 27.1611 235.869 24.7437 235.405 21.3707C235.348 20.9643 235.312 20.5578 235.262 20.0872H235.248Z" fill="white"/>
<path d="M232.04 23.0477V29.1875H209.154V0.863281H232.032V6.96026H216.485V11.738C216.735 11.738 216.957 11.738 217.178 11.738C220.893 11.738 224.616 11.7523 228.331 11.7238C228.896 11.7238 229.067 11.8735 229.06 12.4511C229.024 14.241 229.046 16.0309 229.046 17.8992H216.485V23.0406H232.047L232.04 23.0477Z" fill="white"/>
<path d="M86.3968 0.848928H93.6347C93.6347 1.1199 93.6347 1.35523 93.6347 1.59768C93.6347 7.03861 93.6347 12.4795 93.6347 17.9205C93.6347 18.5123 93.6775 19.1185 93.7919 19.6961C94.2277 21.8211 95.6924 22.905 97.7144 23.3115C99.2863 23.6253 100.872 23.611 102.437 23.2259C104.638 22.6768 105.903 21.1722 105.981 18.8974C106.038 17.2074 106.003 15.5173 106.003 13.8273C106.003 9.74838 106.003 5.66947 106.003 1.58342C106.003 1.36236 106.003 1.13417 106.003 0.86319H113.298C113.298 1.05573 113.298 1.27679 113.298 1.49072C113.298 7.25967 113.298 13.0286 113.298 18.8047C113.298 24.0246 110.825 27.4688 105.824 29.0234C101.366 30.4068 96.8999 30.3355 92.5629 28.5242C88.6332 26.8841 86.454 23.8891 86.4111 19.582C86.3468 13.3567 86.3968 7.13845 86.3968 0.841797V0.848928Z" fill="white"/>
<path d="M85.4608 29.2303C84.8606 29.2303 84.3533 29.2303 83.8461 29.2303C82.0098 29.2303 80.1664 29.2089 78.3301 29.2446C77.8229 29.2517 77.6157 29.0877 77.4656 28.617C77.0012 27.1909 76.4725 25.7861 75.9866 24.3599C75.8794 24.039 75.7222 23.9106 75.365 23.9106C71.6068 23.9249 67.8485 23.9249 64.0903 23.9106C63.7402 23.9106 63.583 24.039 63.4758 24.367C62.9614 25.8431 62.4398 27.3192 61.8825 28.7811C61.811 28.9736 61.5395 29.216 61.3537 29.216C59.1031 29.2446 56.8524 29.2374 54.6018 29.2303C54.5089 29.2303 54.4088 29.1947 54.2445 29.159C54.6589 28.0608 55.0519 27.0126 55.4592 25.9643C58.6101 17.7851 61.761 9.59874 64.8976 1.41239C65.062 0.991661 65.2406 0.813387 65.7264 0.820518C68.4344 0.849042 71.1352 0.841911 73.8431 0.820518C74.2933 0.820518 74.4862 0.970268 74.6434 1.37673C78.2015 10.5472 81.7812 19.7105 85.3465 28.8738C85.3751 28.9522 85.3965 29.0306 85.468 29.2374L85.4608 29.2303ZM69.8562 6.97455C69.8062 6.97455 69.7633 6.97455 69.7133 6.96742C68.4272 10.5686 67.134 14.1697 65.8336 17.8136H73.6716C72.3855 14.1626 71.1209 10.5686 69.8562 6.97455Z" fill="white"/>
<path d="M142.17 0.847656V6.97316C140.641 6.97316 139.119 6.97316 137.605 6.97316C136.09 6.97316 134.604 6.97316 133.032 6.97316V29.1861H125.758V7.00882H116.641V0.847656H142.17Z" fill="white"/>
</g>
<defs>
<clipPath id="clip0_423_21370">
<rect width="292" height="30" fill="white"/>
</clipPath>
</defs>
</svg>
