<svg width="49" height="48" viewBox="0 0 49 48" fill="none" xmlns="http://www.w3.org/2000/svg">
<path fill-rule="evenodd" clip-rule="evenodd" d="M3.0625 7.5C3.0625 6.30653 3.54648 5.16193 4.40798 4.31802C5.26947 3.47411 6.43791 3 7.65625 3H10.7188C11.9371 3 13.1055 3.47411 13.967 4.31802C14.8285 5.16193 15.3125 6.30653 15.3125 7.5H27.9729C28.31 6.92807 28.8303 6.48109 29.4531 6.22836C30.076 5.97564 30.7665 5.9313 31.4177 6.10222C32.0689 6.27315 32.6443 6.64978 33.0547 7.17372C33.4651 7.69765 33.6876 8.3396 33.6876 9C33.6876 9.6604 33.4651 10.3024 33.0547 10.8263C32.6443 11.3502 32.0689 11.7269 31.4177 11.8978C30.7665 12.0687 30.076 12.0244 29.4531 11.7716C28.8303 11.5189 28.31 11.0719 27.9729 10.5H21.8172C22.3685 11.04 22.8585 11.643 23.2995 12.315C25.2534 15.291 26.0312 19.377 26.0312 24C26.0312 29.979 26.8183 33.276 28.2148 35.1C29.3051 36.528 30.9557 37.263 33.6875 37.452C33.7004 36.2669 34.1901 35.1346 35.0502 34.301C35.9103 33.4674 37.0714 32.9999 38.2812 33H41.3438C42.5621 33 43.7305 33.4741 44.592 34.318C45.4535 35.1619 45.9375 36.3065 45.9375 37.5V40.5C45.9375 41.6935 45.4535 42.8381 44.592 43.682C43.7305 44.5259 42.5621 45 41.3438 45H38.2812C37.0629 45 35.8945 44.5259 35.033 43.682C34.1715 42.8381 33.6875 41.6935 33.6875 40.5H21.0271C20.69 41.0719 20.1697 41.5189 19.5469 41.7716C18.924 42.0244 18.2335 42.0687 17.5823 41.8978C16.9311 41.7269 16.3557 41.3502 15.9453 40.8263C15.5349 40.3024 15.3124 39.6604 15.3124 39C15.3124 38.3396 15.5349 37.6976 15.9453 37.1737C16.3557 36.6498 16.9311 36.2731 17.5823 36.1022C18.2335 35.9313 18.924 35.9756 19.5469 36.2284C20.1697 36.4811 20.69 36.9281 21.0271 37.5H26.2671C26.0894 37.3076 25.9208 37.1074 25.7617 36.9C23.7129 34.221 22.9688 30.021 22.9688 24C22.9688 19.62 22.2154 16.209 20.7239 13.935C19.5296 12.12 17.8084 10.935 15.3125 10.599C15.2861 11.7752 14.7905 12.8946 13.9318 13.7172C13.0732 14.5398 11.9198 15.0003 10.7188 15H7.65625C6.43791 15 5.26947 14.5259 4.40798 13.682C3.54648 12.8381 3.0625 11.6935 3.0625 10.5V7.5ZM7.65625 6C7.25014 6 6.86066 6.15804 6.57349 6.43934C6.28633 6.72064 6.125 7.10218 6.125 7.5V10.5C6.125 10.8978 6.28633 11.2794 6.57349 11.5607C6.86066 11.842 7.25014 12 7.65625 12H10.7188C11.1249 12 11.5143 11.842 11.8015 11.5607C12.0887 11.2794 12.25 10.8978 12.25 10.5V7.5C12.25 7.10218 12.0887 6.72064 11.8015 6.43934C11.5143 6.15804 11.1249 6 10.7188 6H7.65625ZM38.2812 36C37.8751 36 37.4857 36.158 37.1985 36.4393C36.9113 36.7206 36.75 37.1022 36.75 37.5V40.5C36.75 40.8978 36.9113 41.2794 37.1985 41.5607C37.4857 41.842 37.8751 42 38.2812 42H41.3438C41.7499 42 42.1393 41.842 42.4265 41.5607C42.7137 41.2794 42.875 40.8978 42.875 40.5V37.5C42.875 37.1022 42.7137 36.7206 42.4265 36.4393C42.1393 36.158 41.7499 36 41.3438 36H38.2812Z" fill="white"/>
</svg>
