<svg width="45" height="44" viewBox="0 0 45 44" fill="none" xmlns="http://www.w3.org/2000/svg">
<g clip-path="url(#clip0_430_22514)">
<path fill-rule="evenodd" clip-rule="evenodd" d="M14.25 5.5V0H0.5V13.75H6V30.25H0.5V44H14.25V38.5H30.75V44H44.5V30.25H39V13.75H44.5V0H30.75V5.5H14.25ZM30.75 8.25H14.25V13.75H8.75V30.25H14.25V35.75H30.75V30.25H36.25V13.75H30.75V8.25ZM33.5 2.75V11H41.75V2.75H33.5ZM41.75 33H33.5V41.25H41.75V33ZM11.5 41.25V33H3.25V41.25H11.5ZM3.25 11H11.5V2.75H3.25V11Z" fill="white"/>
</g>
<defs>
<clipPath id="clip0_430_22514">
<rect width="44" height="44" fill="white" transform="translate(0.5)"/>
</clipPath>
</defs>
</svg>
