<svg width="53" height="52" viewBox="0 0 53 52" fill="none" xmlns="http://www.w3.org/2000/svg">
<g clip-path="url(#clip0_423_22355)">
<path fill-rule="evenodd" clip-rule="evenodd" d="M29.5052 2.33898C28.7155 -0.813516 24.2402 -0.813516 23.4472 2.33898L23.2165 3.26848C23.0815 3.80866 22.8044 4.30286 22.4139 4.69981C22.0235 5.09676 21.5339 5.38199 20.9961 5.52591C20.4582 5.66983 19.8916 5.66719 19.3551 5.51826C18.8186 5.36934 18.3317 5.07956 17.945 4.67898L17.2787 3.99323C15.02 1.65648 11.1427 3.89573 12.0365 7.01898L12.2965 7.94198C12.4493 8.47676 12.4563 9.04265 12.3169 9.58106C12.1775 10.1195 11.8967 10.6108 11.5036 11.0043C11.1105 11.3977 10.6194 11.6789 10.0811 11.8188C9.54278 11.9586 8.97689 11.9521 8.44198 11.7997L7.51898 11.5365C4.39898 10.6427 2.15648 14.52 4.49323 16.7787L5.17898 17.445C5.57956 17.8317 5.86934 18.3186 6.01826 18.8551C6.16719 19.3916 6.16983 19.9582 6.02591 20.4961C5.88199 21.0339 5.59676 21.5235 5.19981 21.9139C4.80286 22.3044 4.30866 22.5815 3.76848 22.7165L2.83898 22.9472C-0.313516 23.737 -0.313516 28.2122 2.83898 29.0052L3.76848 29.236C4.30866 29.371 4.80286 29.6481 5.19981 30.0385C5.59676 30.429 5.88199 30.9185 6.02591 31.4564C6.16983 31.9943 6.16719 32.5609 6.01826 33.0974C5.86934 33.6339 5.57956 34.1208 5.17898 34.5075L4.49323 35.1737C2.15648 37.4325 4.39573 41.3097 7.51898 40.416L8.44198 40.156C8.97709 40.0029 9.5434 39.9958 10.0822 40.1353C10.621 40.2748 11.1127 40.5559 11.5062 40.9495C11.8998 41.3431 12.1809 41.8347 12.3204 42.3735C12.4599 42.9123 12.4528 43.4786 12.2997 44.0137L12.0365 44.9335C11.1427 48.0535 15.02 50.296 17.2787 47.9592L17.945 47.2735C18.3317 46.8729 18.8186 46.5831 19.3551 46.4342C19.8916 46.2853 20.4582 46.2826 20.9961 46.4266C21.5339 46.5705 22.0235 46.8557 22.4139 47.2527C22.8044 47.6496 23.0815 48.1438 23.2165 48.684L23.4472 49.6135C24.237 52.766 28.7122 52.766 29.5052 49.6135L29.736 48.684C29.871 48.1438 30.1481 47.6496 30.5385 47.2527C30.929 46.8557 31.4185 46.5705 31.9564 46.4266C32.4943 46.2826 33.0609 46.2853 33.5974 46.4342C34.1339 46.5831 34.6208 46.8729 35.0075 47.2735L35.6737 47.9592C37.9325 50.296 41.8097 48.0567 40.916 44.9335L40.656 44.0105C40.5029 43.4754 40.4958 42.9091 40.6353 42.3703C40.7748 41.8315 41.0559 41.3398 41.4495 40.9462C41.8431 40.5527 42.3347 40.2716 42.8735 40.1321C43.4123 39.9925 43.9786 39.9997 44.5137 40.1527L45.4335 40.416C48.5535 41.3097 50.796 37.4325 48.4592 35.1737L47.7735 34.5075C47.3729 34.1208 47.0831 33.6339 46.9342 33.0974C46.7853 32.5609 46.7826 31.9943 46.9266 31.4564C47.0705 30.9185 47.3557 30.429 47.7527 30.0385C48.1496 29.6481 48.6438 29.371 49.184 29.236L50.1135 29.0052C53.266 28.2155 53.266 23.7402 50.1135 22.9472L49.184 22.7165C48.6438 22.5815 48.1496 22.3044 47.7527 21.9139C47.3557 21.5235 47.0705 21.0339 46.9266 20.4961C46.7826 19.9582 46.7853 19.3916 46.9342 18.8551C47.0831 18.3186 47.3729 17.8317 47.7735 17.445L48.4592 16.7787C50.796 14.52 48.5567 10.6427 45.4335 11.5365L44.5105 11.7965C43.9757 11.9493 43.4098 11.9563 42.8714 11.8169C42.333 11.6775 41.8416 11.3967 41.4482 11.0036C41.0548 10.6105 40.7735 10.1194 40.6337 9.58108C40.4938 9.04278 40.5004 8.47689 40.6527 7.94198L40.916 7.01898C41.8097 3.89898 37.9325 1.65648 35.6737 3.99323L35.0075 4.67898C34.6208 5.07956 34.1339 5.36934 33.5974 5.51826C33.0609 5.66719 32.4943 5.66983 31.9564 5.52591C31.4185 5.38199 30.929 5.09676 30.5385 4.69981C30.1481 4.30286 29.871 3.80866 29.736 3.26848L29.5052 2.33898ZM26.4762 42.2165C28.6285 42.2469 30.7653 41.8493 32.7626 41.0467C34.7598 40.2442 36.5776 39.0527 38.1104 37.5414C39.6431 36.0302 40.8602 34.2294 41.691 32.2438C42.5217 30.2581 42.9495 28.1271 42.9495 25.9746C42.9495 23.8221 42.5217 21.6912 41.691 19.7055C40.8602 17.7198 39.6431 15.919 38.1104 14.4078C36.5776 12.8966 34.7598 11.705 32.7626 10.9025C30.7653 10.0999 28.6285 9.70229 26.4762 9.73273C22.1682 9.73273 18.0366 11.4441 14.9903 14.4903C11.9441 17.5366 10.2327 21.6682 10.2327 25.9762C10.2327 30.2843 11.9441 34.4159 14.9903 37.4621C18.0366 40.5084 22.1682 42.2197 26.4762 42.2197V42.2165Z" fill="white"/>
<path fill-rule="evenodd" clip-rule="evenodd" d="M24.468 25.9998L15.4557 13.9813L18.0557 12.0312L27.3117 24.3748H42.7427V27.6248H27.3117L18.0492 39.9683L15.4492 38.0183L24.4712 25.9998H24.468Z" fill="white"/>
</g>
<defs>
<clipPath id="clip0_423_22355">
<rect width="52" height="52" fill="white" transform="translate(0.5)"/>
</clipPath>
</defs>
</svg>
