<svg width="45" height="46" viewBox="0 0 45 46" fill="none" xmlns="http://www.w3.org/2000/svg">
<g clip-path="url(#clip0_423_22358)">
<path fill-rule="evenodd" clip-rule="evenodd" d="M0 4.3125C0 3.16875 0.444474 2.07185 1.23564 1.2631C2.02681 0.454351 3.09987 0 4.21875 0L9.84375 0C10.9626 0 12.0357 0.454351 12.8269 1.2631C13.618 2.07185 14.0625 3.16875 14.0625 4.3125V10.0625C14.0625 11.2062 13.618 12.3031 12.8269 13.1119C12.0357 13.9206 10.9626 14.375 9.84375 14.375H4.21875C3.09987 14.375 2.02681 13.9206 1.23564 13.1119C0.444474 12.3031 0 11.2062 0 10.0625L0 4.3125ZM39.375 20.125H5.625C4.87908 20.125 4.16371 20.4279 3.63626 20.9671C3.10882 21.5062 2.8125 22.2375 2.8125 23V37.375C2.8125 38.1375 3.10882 38.8688 3.63626 39.4079C4.16371 39.9471 4.87908 40.25 5.625 40.25H39.375C40.1209 40.25 40.8363 39.9471 41.3637 39.4079C41.8912 38.8688 42.1875 38.1375 42.1875 37.375V23C42.1875 22.2375 41.8912 21.5062 41.3637 20.9671C40.8363 20.4279 40.1209 20.125 39.375 20.125ZM5.625 17.25C4.13316 17.25 2.70242 17.8558 1.64752 18.9341C0.592632 20.0125 0 21.475 0 23L0 37.375C0 38.9 0.592632 40.3625 1.64752 41.4409C2.70242 42.5192 4.13316 43.125 5.625 43.125H39.375C40.8668 43.125 42.2976 42.5192 43.3525 41.4409C44.4074 40.3625 45 38.9 45 37.375V23C45 21.475 44.4074 20.0125 43.3525 18.9341C42.2976 17.8558 40.8668 17.25 39.375 17.25H5.625Z" fill="white"/>
<path fill-rule="evenodd" clip-rule="evenodd" d="M42.1875 31.625H2.8125V28.75H42.1875V31.625ZM5.625 35.9375C5.625 35.5563 5.77316 35.1906 6.03688 34.921C6.3006 34.6514 6.65829 34.5 7.03125 34.5H23.9062C24.2792 34.5 24.6369 34.6514 24.9006 34.921C25.1643 35.1906 25.3125 35.5563 25.3125 35.9375C25.3125 36.3187 25.1643 36.6844 24.9006 36.954C24.6369 37.2236 24.2792 37.375 23.9062 37.375H7.03125C6.65829 37.375 6.3006 37.2236 6.03688 36.954C5.77316 36.6844 5.625 36.3187 5.625 35.9375ZM5.625 24.4375C5.625 24.0563 5.77316 23.6906 6.03688 23.421C6.3006 23.1514 6.65829 23 7.03125 23H32.3438C32.7167 23 33.0744 23.1514 33.3381 23.421C33.6018 23.6906 33.75 24.0563 33.75 24.4375C33.75 24.8187 33.6018 25.1844 33.3381 25.454C33.0744 25.7236 32.7167 25.875 32.3438 25.875H7.03125C6.65829 25.875 6.3006 25.7236 6.03688 25.454C5.77316 25.1844 5.625 24.8187 5.625 24.4375Z" fill="white"/>
</g>
<defs>
<clipPath id="clip0_423_22358">
<rect width="45" height="46" fill="white"/>
</clipPath>
</defs>
</svg>
